<?xml version="1.0" encoding="iso-8859-1"?>
<!-- Generator: Adobe Illustrator 19.0.0, SVG Export Plug-In . SVG Version: 6.00 Build 0)  -->
<svg version="1.1" id="Layer_1" xmlns="http://www.w3.org/2000/svg" xmlns:xlink="http://www.w3.org/1999/xlink" x="0px" y="0px"
	 viewBox="0 0 512 512" style="enable-background:new 0 0 512 512;" xml:space="preserve">
<g>
	<g>
		<path fill="#fff" d="M479.12,226.422c-4.202,0-7.609,3.406-7.609,7.609v27.9c0,4.203,3.407,7.609,7.609,7.609s7.609-3.406,7.609-7.609v-27.9
			C486.729,229.828,483.322,226.422,479.12,226.422z"/>
	</g>
</g>
<g>
	<g>
		<path fill="#fff" d="M479.121,284.063c-4.202,0-7.609,3.406-7.609,7.609c0,39.078-27.515,62.421-27.794,63.649H290.161
			c-16.896-12.781-30.545-29.637-40.571-50.159l-34.983-83.482c-1.766-4.215-1.775-8.891-0.026-13.165
			c1.749-4.273,5.034-7.6,9.252-9.366c4.215-1.767,8.889-1.776,13.164-0.026c4.273,1.75,7.6,5.035,9.366,9.25l27.149,64.786
			c0.015,0.035,1.034,5.089,7.25,4.663c0.014-0.001,0.028,0.001,0.043,0.001c6.076-0.215,23.909,0.102,33.319,4.126
			c0.976,0.418,1.99,0.615,2.989,0.615c2.954,0,5.765-1.731,6.999-4.619c1.653-3.864-0.14-8.335-4.003-9.988
			c-9.539-4.08-23.354-5.119-31.969-5.343V71.445c0-9.492,7.723-17.216,17.215-17.216c9.492,0,17.215,7.723,17.215,17.216v152.19
			c0,4.203,3.407,7.609,7.609,7.609s7.609-3.406,7.609-7.609V32.434c0-9.492,7.723-17.216,17.216-17.216
			c9.493,0,17.215,7.723,17.215,17.216v191.201c0,4.203,3.407,7.609,7.609,7.609c4.202,0,7.609-3.406,7.609-7.609V70.952
			c0-9.492,7.723-17.215,17.216-17.215c9.493,0,17.215,7.722,17.215,17.215v152.682c0,4.203,3.407,7.609,7.609,7.609
			c4.202,0,7.609-3.406,7.609-7.609V108.092c0-9.492,7.723-17.216,17.215-17.216c9.492,0,17.216,7.723,17.216,17.216v94.489
			c0,4.203,3.407,7.609,7.609,7.609c4.202,0,7.609-3.406,7.609-7.609v-94.489c-0.001-17.884-14.55-32.434-32.435-32.434
			c-6.32,0-12.223,1.817-17.215,4.956v-9.661c0-17.883-14.549-32.433-32.433-32.433c-6.32,0-12.223,1.817-17.216,4.956V32.434
			C387.432,14.549,372.883,0,355,0s-32.434,14.549-32.434,32.434v11.533c-4.992-3.139-10.895-4.956-17.215-4.956
			c-16.372,0-29.941,12.196-32.119,27.979c-2.63-7.593-7.929-13.864-15.062-17.775c-7.613-4.174-16.372-5.141-24.662-2.723
			c-6.067,1.77-11.225,5.168-15.138,9.579l-2.706-9.275c-2.419-8.291-7.944-15.155-15.557-19.329
			c-7.613-4.174-16.373-5.14-24.662-2.723c-5.929,1.731-11.128,5.049-15.137,9.584l-3.094-10.604
			c-2.419-8.29-7.944-15.155-15.557-19.329c-7.613-4.174-16.373-5.137-24.662-2.72c-8.29,2.42-15.155,7.945-19.329,15.558
			c-4.175,7.614-5.141,16.373-2.722,24.662l3.23,11.072c-5.669-1.614-11.848-1.704-17.914,0.064
			c-8.29,2.42-15.155,7.945-19.329,15.558c-4.174,7.614-5.141,16.373-2.722,24.662l45.076,154.487l-20.391-25.18
			c-11.255-13.896-31.719-16.047-45.616-4.792c-13.898,11.255-16.047,31.718-4.793,45.615l57.103,70.51
			c1.504,1.858,3.701,2.82,5.918,2.82c1.682,0,3.375-0.555,4.785-1.696c3.266-2.644,3.769-7.436,1.124-10.701l-57.102-70.51
			c-5.974-7.377-4.833-18.238,2.543-24.212c7.377-5.974,18.239-4.832,24.213,2.543l44.295,54.686c4.21,4.697,8.85,2.099,8.869,2.09
			c4.439-1.935,18.943-7.272,27.082-6.395c4.184,0.441,7.928-2.58,8.373-6.759c0.445-4.179-2.58-7.928-6.759-8.374
			c-8.617-0.917-19.438,2.006-26.744,4.503L72.819,88.99c-1.28-4.388-0.763-9.034,1.457-13.083c2.22-4.049,5.859-6.984,10.247-8.264
			c8.66-2.53,17.728,2.099,20.889,10.387c0.051,0.324,43.097,146.994,43.097,146.994c2.387,5.964,8.729,5.367,9.445,5.157
			c4.033-1.184,6.341-5.414,5.157-9.445l-53.558-183.1c-1.28-4.388-0.763-9.034,1.458-13.083c2.22-4.049,5.859-6.984,10.247-8.264
			c4.389-1.282,9.034-0.763,13.083,1.457c4.049,2.22,6.984,5.859,8.264,10.248l55.451,187.285c0.026,4.106,0.831,8.271,2.513,12.286
			l35.067,83.682c0.055,0.132,0.114,0.263,0.177,0.391c3.683,7.562,7.826,14.671,12.395,21.333l-93.953,27.963
			c-9.782-3.727-19.155-8.649-27.882-14.677c-3.456-2.388-8.195-1.523-10.586,1.934c-2.388,3.458-1.523,8.196,1.935,10.586
			c9.405,6.498,19.482,11.86,30.008,15.97l34.197,117.202c1.734,5.941,5.861,10.54,11.105,13.828
			c6.182,3.876,15.479,2.554,17.63,1.926l69.35-20.236c0,0,0.704,24.539,23.172,24.539h135.694
			c12.777,0,23.172-10.395,23.172-23.172V359.806c15.937-19.188,24.681-43.266,24.681-68.134
			C486.73,287.468,483.323,284.063,479.121,284.063z M168.263,62.063c0,0-5.107-18.239,11.444-22.706
			c13.589-3.668,20.068,7.316,21.348,11.704l34.198,116.941c2.64,6.298,8.727,5.373,9.44,5.165c4.034-1.181,6.346-5.407,5.165-9.441
			l-23.794-81.281l-0.008-0.027c-2.636-9.102,2.613-18.658,11.714-21.313c9.113-2.664,18.689,2.592,21.348,11.704l13.8,47.295
			v112.271l-12.522-29.882c-3.338-7.965-9.601-14.163-17.637-17.452c-8.034-3.29-16.846-3.264-24.812,0.075
			c-4.196,1.758-7.826,4.306-10.798,7.393L168.263,62.063z M163.393,374.087l94.711-28.188c5.655,6.614,11.819,12.662,18.48,18.118
			l-106.901,31.626L163.393,374.087z M280.011,471.608L206.4,493.086c-2.038,0.598-4.188,0.361-6.052-0.66
			c-1.863-1.021-3.216-2.707-3.812-4.746l-7.942-27.219l91.417-29.724V471.608z M280.011,414.734l-95.681,31.111l-10.386-35.594
			l106.067-31.378V414.734z M446.829,488.828c0.001,4.386-3.567,7.954-7.953,7.954H303.182c-4.386,0-7.954-3.568-7.954-7.954V460.97
			h151.601V488.828z M446.83,445.752H295.229V427.87H446.83V445.752z M446.83,412.652L446.83,412.652H295.229v-42.113H446.83
			V412.652z"/>
	</g>
</g>
<g>
	<g>
		<path fill="#fff" d="M450.141,278.669c-0.156-4.199-3.688-7.476-7.887-7.32c-4.199,0.156-7.476,3.687-7.32,7.887
			c0.756,20.299-8.61,39.625-25.056,51.698c-3.388,2.487-4.118,7.249-1.63,10.636c1.551,2.113,3.988,3.192,6.424,3.101
			c1.47-0.055,2.938-0.535,4.212-1.47C439.402,328.138,451.086,304.014,450.141,278.669z"/>
	</g>
</g>
<g>
</g>
<g>
</g>
<g>
</g>
<g>
</g>
<g>
</g>
<g>
</g>
<g>
</g>
<g>
</g>
<g>
</g>
<g>
</g>
<g>
</g>
<g>
</g>
<g>
</g>
<g>
</g>
<g>
</g>
</svg>
